<svg xmlns="http://www.w3.org/2000/svg" version="1.1" xmlns:xlink="http://www.w3.org/1999/xlink" xmlns:svgjs="http://svgjs.dev/svgjs" width="1500" height="1500" viewBox="0 0 1500 1500"><rect width="1500" height="1500" fill="#ffffff"></rect><g transform="matrix(0.6666666666666666,0,0,0.6666666666666666,249.39393939393938,438.5856950067477)"><svg viewBox="0 0 396 247" data-background-color="#e0ded5" preserveAspectRatio="xMidYMid meet" height="935" width="1500" xmlns="http://www.w3.org/2000/svg" xmlns:xlink="http://www.w3.org/1999/xlink"><g id="tight-bounds" transform="matrix(1,0,0,1,0.2400000000000091,-0.09999999999999432)"><svg viewBox="0 0 395.52 247.2" height="247.2" width="395.52"><g><svg></svg></g><g><svg viewBox="0 0 395.52 247.2" height="247.2" width="395.52"><g transform="matrix(1,0,0,1,39.55199999999999,95.43391559306974)"><svg viewBox="0 0 316.416 56.33216881386051" height="56.33216881386051" width="316.416"><g><svg viewBox="0 0 316.416 56.33216881386051" height="56.33216881386051" width="316.416"><g><svg viewBox="0 0 316.416 56.33216881386051" height="56.33216881386051" width="316.416"><g id="textblocktransform"><svg viewBox="0 0 316.416 56.33216881386051" height="56.33216881386051" width="316.416" id="textblock"><g><svg viewBox="0 0 316.416 56.33216881386051" height="56.33216881386051" width="316.416"><g transform="matrix(1,0,0,1,0,0)"><svg width="316.416" viewBox="2.81 -38.62 219.81 39.129999999999995" height="56.33216881386051" data-palette-color="#243cfc"><path d="M2.81-19.43L2.81-19.43Q2.81-23.46 4.32-26.97 5.83-30.47 8.74-33.06 11.65-35.64 15.88-37.13 20.12-38.62 25.59-38.62L25.59-38.62Q27.56-38.62 29.55-38.42 31.54-38.21 33.48-37.77 35.42-37.33 37.27-36.66 39.11-35.99 40.77-35.06L40.77-35.06 37.21-29.2Q36.21-29.79 34.94-30.26 33.67-30.74 32.21-31.07 30.76-31.4 29.21-31.57 27.66-31.74 26.1-31.74L26.1-31.74Q22.49-31.74 19.65-30.82 16.82-29.91 14.87-28.26 12.92-26.61 11.89-24.32 10.86-22.02 10.86-19.29L10.86-19.29Q10.86-16.46 11.94-14.09 13.01-11.72 14.99-10.01 16.97-8.3 19.78-7.34 22.58-6.37 26.05-6.37L26.05-6.37Q28.81-6.37 31.1-6.99 33.4-7.62 35.11-8.76 36.82-9.91 37.89-11.54 38.96-13.16 39.31-15.19L39.31-15.19 25.98-15.19 25.98-21.56 46.26-21.56 46.26-21.53 46.29-21.56Q46.9-18.63 46.67-15.86 46.44-13.09 45.4-10.63 44.36-8.18 42.55-6.13 40.75-4.08 38.23-2.6 35.72-1.12 32.52-0.31 29.32 0.51 25.51 0.51L25.51 0.51Q20.19 0.51 15.98-1.05 11.77-2.61 8.84-5.32 5.91-8.03 4.36-11.67 2.81-15.31 2.81-19.43ZM53.15-14.5L53.15-14.5Q53.15-17.43 54.34-20.1 55.54-22.78 57.79-24.83 60.03-26.88 63.29-28.1 66.55-29.32 70.7-29.32L70.7-29.32Q74.83-29.32 78.13-28.09 81.44-26.86 83.75-24.71 86.06-22.56 87.29-19.65 88.52-16.75 88.52-13.43L88.52-13.43Q88.52-13.01 88.51-12.54 88.5-12.06 88.45-11.67L88.45-11.67 61.2-11.67Q61.67-10.38 62.71-9.3 63.74-8.23 65.31-7.45 66.87-6.67 68.92-6.24 70.97-5.81 73.46-5.81L73.46-5.81Q75.95-5.81 78.42-6.34 80.88-6.86 83.13-7.67L83.13-7.67 85.57-2.15Q84.15-1.49 82.7-0.99 81.25-0.49 79.67-0.16 78.1 0.17 76.38 0.34 74.66 0.51 72.75 0.51L72.75 0.51Q67.89 0.51 64.23-0.66 60.57-1.83 58.1-3.86 55.64-5.88 54.39-8.62 53.15-11.35 53.15-14.5ZM61.2-17.31L80.86-17.31Q80.47-18.51 79.65-19.54 78.83-20.58 77.61-21.35 76.39-22.12 74.78-22.56 73.17-23 71.24-23L71.24-23Q69.19-23 67.5-22.53 65.82-22.07 64.55-21.29 63.28-20.51 62.44-19.48 61.59-18.46 61.2-17.31L61.2-17.31ZM100.63 0L100.63-23.39 93.67-23.39 93.67-28.81 100.63-28.81 100.63-37.77 107.86-37.77 107.86-28.81 114.81-28.81 114.81-23.39 107.86-23.39 107.86 0 100.63 0ZM117.23 0L135.15-38.16 143.35-38.16 161.81 0 153.68 0 150.63-6.42 128.34-6.42 125.38 0 117.23 0ZM131.29-12.79L147.58-12.79 139.32-30.13 131.29-12.79ZM165.1-14.33L165.1-14.33Q165.1-17.5 166.26-20.25 167.42-23 169.66-25.01 171.89-27.03 175.12-28.17 178.36-29.32 182.51-29.32L182.51-29.32Q184.32-29.32 186.15-29.1 187.98-28.88 189.68-28.48 191.37-28.08 192.86-27.53 194.35-26.98 195.45-26.32L195.45-26.32 192.1-20.87Q189.74-21.97 187.62-22.49 185.51-23 183.34-23L183.34-23Q180.85-23 178.87-22.35 176.89-21.7 175.51-20.54 174.14-19.38 173.42-17.81 172.7-16.24 172.7-14.38L172.7-14.38Q172.7-12.52 173.46-10.95 174.23-9.38 175.64-8.24 177.04-7.1 179.03-6.46 181.02-5.81 183.46-5.81L183.46-5.81Q186.15-5.81 188.53-6.57 190.91-7.32 192.96-8.59L192.96-8.59 196.3-3.15Q195.01-2.37 193.5-1.7 191.98-1.03 190.26-0.54 188.54-0.05 186.65 0.23 184.76 0.51 182.73 0.51L182.73 0.51Q178.6 0.51 175.33-0.61 172.06-1.73 169.79-3.72 167.52-5.71 166.31-8.42 165.1-11.13 165.1-14.33ZM208.43 0L208.43-23.39 201.48-23.39 201.48-28.81 208.43-28.81 208.43-37.77 215.66-37.77 215.66-28.81 222.62-28.81 222.62-23.39 215.66-23.39 215.66 0 208.43 0Z" opacity="1" transform="matrix(1,0,0,1,0,0)" fill="#000000" class="wordmark-text-0" data-fill-palette-color="primary" id="text-0"></path></svg></g></svg></g></svg></g></svg></g><g></g></svg></g></svg></g><g><path d="M0 247.2v-247.2h395.52v247.2zM390.44 242.12v-237.04h-385.36v237.04z" fill="#000000" fill-rule="nonzero" stroke="none" stroke-width="1" stroke-linecap="butt" stroke-linejoin="miter" stroke-miterlimit="10" stroke-dasharray="" stroke-dashoffset="0" font-family="none" font-weight="none" font-size="none" text-anchor="none" style="mix-blend-mode: normal" data-fill-palette-color="tertiary"></path></g></svg></g><defs></defs></svg><rect width="395.52" height="247.2" fill="none" stroke="none" visibility="hidden"></rect></g></svg></g></svg>